<?xml version="1.0" standalone="no"?>
<!DOCTYPE svg PUBLIC "-//W3C//DTD SVG 20010904//EN"
 "http://www.w3.org/TR/2001/REC-SVG-20010904/DTD/svg10.dtd">
<svg version="1.0" xmlns="http://www.w3.org/2000/svg"
 width="500.000000pt" height="500.000000pt" viewBox="0 0 500.000000 500.000000"
 preserveAspectRatio="xMidYMid meet">

<g transform="translate(0.000000,500.000000) scale(0.100000,-0.100000)"
fill="#000000" stroke="none">
<path d="M2195 4785 c-250 -35 -553 -133 -755 -242 -197 -107 -402 -264 -565
-434 -442 -460 -661 -1039 -642 -1699 7 -214 22 -321 80 -541 42 -156 67 -225
134 -369 254 -542 747 -990 1297 -1179 259 -90 424 -120 691 -128 289 -8 485
19 750 104 733 236 1318 867 1508 1629 55 220 71 350 71 579 -1 382 -78 708
-249 1047 -178 352 -446 654 -784 881 -111 74 -311 179 -423 220 -110 42 -308
96 -434 118 -155 28 -526 36 -679 14z m365 -230 c16 -20 8 -102 -13 -122 -19
-19 -59 -11 -87 17 -28 28 -27 84 2 104 29 20 82 21 98 1z m134 -96 c32 -25
33 -40 3 -75 -27 -31 -67 -35 -116 -10 l-30 16 16 37 c8 21 20 41 27 45 22 15
74 8 100 -13z m-236 -32 c33 -30 29 -63 -9 -76 -81 -28 -149 -1 -135 54 4 14
12 25 20 25 7 0 19 7 26 15 17 20 66 11 98 -18z m592 15 c3 -4 11 -8 18 -10
29 -6 91 -55 121 -97 34 -48 39 -68 15 -58 -8 3 -13 12 -10 20 4 9 -1 17 -14
20 -11 3 -18 9 -15 13 3 5 -12 19 -32 32 -70 43 -161 67 -174 46 -4 -7 -11 -3
-18 11 -9 17 -9 21 1 19 7 -2 12 2 11 8 -2 13 87 8 97 -4z m-484 -81 c-3 -5 8
-14 25 -21 45 -19 62 -50 49 -86 -12 -31 -38 -64 -51 -64 -5 0 -20 12 -34 27
-30 34 -35 105 -8 135 17 19 28 24 19 9z m-56 -60 c0 -20 -8 -53 -19 -74 -10
-20 -14 -34 -7 -31 6 3 2 -2 -8 -10 -28 -23 -52 -20 -75 10 -37 47 -21 104 37
134 48 26 72 16 72 -29z m-666 -2 c-3 -5 2 -6 10 -3 13 5 16 -1 15 -27 0 -19
-4 -43 -9 -54 -8 -18 -9 -17 -9 8 -1 15 -10 36 -21 47 -21 21 -17 52 6 43 8
-3 11 -9 8 -14z m-210 -71 c21 -29 21 -74 0 -82 -26 -10 -34 -7 -44 17 -7 17
-9 18 -9 5 -1 -10 -4 -17 -8 -17 -20 3 -34 -2 -28 -11 3 -5 -1 -10 -9 -10 -9
0 -16 -5 -16 -12 0 -6 -3 -9 -6 -6 -9 10 15 84 37 112 25 32 62 34 83 4z
m-174 -65 c12 -28 19 -57 15 -71 -5 -21 -7 -22 -26 -8 -15 10 -37 13 -75 9
l-54 -6 0 29 c0 35 26 69 60 83 47 18 58 13 80 -36z m1759 7 c49 -14 192 -113
228 -158 37 -45 62 -117 46 -133 -7 -7 -19 9 -39 48 -40 80 -74 98 -180 98
-64 0 -86 4 -101 17 -11 10 -40 21 -66 24 -44 6 -48 5 -79 -28 -18 -19 -46
-56 -61 -81 -25 -41 -33 -47 -63 -47 -29 0 -34 3 -34 24 0 31 -24 49 -66 50
-29 1 -34 5 -34 24 0 37 97 126 154 142 47 13 47 13 80 -19 33 -32 35 -32 75
-20 26 8 43 20 47 33 12 37 34 43 93 26z m-1449 -57 c-27 -48 -59 -71 -71 -51
-14 22 -10 30 11 23 11 -3 20 -2 20 4 0 10 52 68 59 64 1 -1 -7 -19 -19 -40z
m1983 5 c39 -53 50 -102 44 -192 -6 -74 -33 -193 -42 -184 -2 2 2 28 10 58 26
96 13 240 -23 273 -9 8 -34 18 -54 22 -30 6 -39 4 -49 -13 -12 -19 -14 -19
-26 -4 -16 21 -17 49 -1 58 7 5 8 3 3 -6 -5 -8 1 -7 16 3 13 9 40 17 61 17 30
0 41 -6 61 -32z m-2501 -15 c23 -21 23 -28 -3 -64 -16 -23 -19 -38 -14 -69 4
-22 11 -42 16 -46 13 -7 11 -34 -2 -34 -6 0 -20 10 -30 23 l-20 22 11 -25 c10
-23 9 -22 -15 5 -41 49 -58 135 -32 167 13 17 46 37 61 38 5 0 18 -7 28 -17z
m385 -37 c7 -1 15 -5 19 -9 11 -11 12 -67 2 -67 -6 0 -8 -10 -5 -22 3 -11 -2
-35 -11 -52 l-17 -31 -3 30 c-1 17 -6 37 -9 45 -3 8 -5 18 -5 23 5 19 -60 5
-90 -21 -30 -26 -35 -27 -58 -15 -14 7 -34 13 -45 13 -31 0 -65 -28 -65 -54 0
-27 25 -53 35 -36 3 5 1 10 -4 10 -6 0 -11 9 -11 20 0 20 27 40 56 40 24 0 54
-29 54 -52 0 -21 0 -21 -35 -8 -17 7 -24 7 -20 0 3 -6 -2 -10 -13 -10 -27 0
-34 -11 -19 -29 6 -8 -2 -5 -20 7 -39 27 -77 87 -69 108 3 8 2 12 -4 9 -16
-10 -12 13 7 43 25 38 33 42 73 36 45 -8 71 -22 91 -47 16 -20 17 -20 23 11 4
17 13 35 19 40 22 17 72 31 92 26 11 -3 25 -6 32 -8z m782 -12 c65 -26 125
-114 136 -201 12 -87 -36 -220 -123 -343 -28 -39 -141 -150 -153 -150 -4 0
-10 -9 -14 -19 -5 -17 -11 -14 -48 26 -40 44 -43 45 -90 40 -39 -3 -56 -11
-88 -43 -26 -26 -39 -33 -39 -22 0 9 -11 26 -25 39 -32 31 -31 35 5 54 38 20
144 152 160 199 9 28 9 43 -2 72 -12 35 -14 36 -55 31 -24 -2 -43 0 -43 5 0
19 31 68 49 77 73 39 129 0 141 -99 3 -25 10 -45 15 -45 20 0 58 137 58 212 0
80 -16 117 -60 134 -25 9 -26 10 -7 23 41 29 125 33 183 10z m707 -4 c8 0 22
-9 32 -21 28 -34 61 -42 99 -24 27 13 40 14 75 4 24 -7 50 -19 58 -26 13 -12
13 -13 -1 -8 -30 11 -28 -10 1 -27 27 -15 28 -15 23 0 -4 13 -3 14 6 6 23 -21
48 -109 39 -135 l-9 -24 -13 30 c-27 64 -139 135 -212 135 -39 0 -100 -28
-125 -56 -9 -11 -26 -38 -39 -61 l-23 -42 21 -43 c19 -42 41 -59 91 -74 l24
-6 -24 -14 c-35 -19 -117 -17 -165 5 -51 23 -80 64 -83 117 -2 44 5 59 72 151
34 47 41 51 63 43 19 -7 24 -6 24 5 0 14 -12 20 -33 16 -4 -1 -3 8 3 19 13 23
48 41 68 34 8 -2 20 -4 28 -4z m-1531 -96 c10 -10 14 -25 11 -38 -3 -12 -6
-28 -6 -37 0 -15 -32 -59 -42 -59 -3 0 2 20 10 44 14 38 14 45 1 58 -8 8 -20
13 -27 10 -18 -6 -14 16 6 27 23 14 28 14 47 -5z m189 -10 c8 -3 12 -12 9 -20
-3 -8 1 -14 10 -14 9 0 25 -12 36 -26 22 -28 28 -74 10 -74 -5 0 -8 -4 -4 -9
3 -5 -9 -24 -26 -43 -17 -18 -29 -27 -25 -21 5 9 2 11 -8 7 -9 -3 -14 -9 -11
-14 2 -4 -23 -8 -56 -8 -60 -1 -73 11 -21 21 42 8 82 51 82 86 0 60 -81 70
-145 19 -38 -30 -39 -30 -15 -4 30 34 94 76 115 76 8 0 15 4 15 10 0 5 -8 7
-17 4 -15 -5 -16 -4 -3 5 17 12 32 14 54 5z m1837 -81 c28 -12 42 -27 54 -55
18 -47 18 -131 0 -178 l-14 -35 5 37 c11 70 -38 168 -84 168 -7 0 -24 -11 -37
-24 -13 -13 -26 -22 -28 -20 -2 2 -1 -10 1 -27 3 -23 1 -30 -7 -25 -22 14 12
-79 67 -186 2 -5 -1 -8 -6 -8 -17 0 -103 137 -109 174 -10 63 5 124 39 154 50
45 66 49 119 25z m-1867 -9 c9 -8 16 -18 16 -20 0 -12 -24 -50 -39 -61 -24
-19 -32 -15 -25 12 5 20 2 25 -21 31 -15 4 -31 2 -38 -5 -20 -20 -30 -11 -11
10 19 22 68 48 91 49 6 0 19 -7 27 -16z m-409 -34 c11 -10 34 -25 50 -34 l30
-16 -30 7 c-39 10 -100 6 -126 -7 -15 -9 -19 -19 -17 -43 2 -26 10 -36 45 -52
l43 -21 -50 -2 c-28 -1 -50 2 -50 8 0 5 -3 9 -7 9 -58 -9 -80 118 -29 159 29
22 112 18 141 -8z m228 -50 c21 -25 22 -52 2 -89 -21 -41 -76 -56 -103 -29
-15 15 -16 72 -1 99 20 39 76 49 102 19z m2050 -7 c25 -28 43 -112 27 -126
-10 -9 -11 -9 -6 1 4 7 1 12 -8 12 -9 0 -16 6 -17 13 0 10 -2 10 -6 0 -5 -14
-29 -17 -36 -5 -2 4 -2 2 -1 -5 2 -6 -2 -13 -7 -15 -6 -2 -5 -15 2 -36 19 -54
4 -47 -21 10 -24 55 -24 124 0 153 17 20 53 19 73 -2z m-2239 1 c20 -8 11 -24
-14 -24 -11 0 -24 -9 -30 -20 -8 -14 -8 -20 0 -20 6 0 9 -4 6 -9 -4 -5 -14 -8
-24 -6 -9 2 -20 4 -24 4 -10 1 -38 31 -38 41 0 31 76 52 124 34z m2346 -104
c-7 -16 -17 -30 -22 -30 -5 0 -8 3 -6 8 22 44 32 61 36 57 3 -2 -1 -18 -8 -35z
m-2005 14 c43 -20 66 -55 70 -107 2 -36 -2 -46 -31 -74 -38 -38 -69 -41 -129
-14 -52 23 -63 38 -74 97 -7 38 -6 45 3 30 25 -43 59 -66 95 -66 42 0 54 7 70
37 14 28 14 66 -1 81 -21 21 -32 13 -12 -10 10 -12 13 -18 6 -14 -10 6 -11 1
-6 -18 9 -35 -11 -56 -53 -56 -37 0 -83 36 -83 67 0 13 3 14 12 5 26 -26 64
-12 59 21 -2 11 27 9 34 -3 3 -5 11 -10 17 -10 7 0 6 6 -2 15 -7 8 -9 15 -4
16 5 0 0 4 -11 9 -11 5 -14 9 -7 9 8 1 29 -6 47 -15z m1772 -123 c34 -30 61
-57 59 -59 -2 -1 -25 11 -52 27 -60 39 -105 41 -139 6 -29 -28 -31 -42 -10
-71 8 -12 12 -23 10 -26 -2 -2 4 -4 13 -5 9 0 46 -4 82 -9 l65 -7 -43 -15
c-55 -18 -100 -10 -148 29 -70 55 -81 100 -36 149 18 21 41 33 72 39 54 9 49
11 127 -58z m424 59 c27 -15 49 -63 49 -109 0 -37 -4 -43 -40 -66 -28 -18 -53
-25 -89 -25 -64 0 -74 16 -15 23 56 6 87 34 87 77 0 36 -12 47 -63 56 -41 8
-115 -15 -115 -35 0 -8 -10 -15 -22 -16 -17 -1 -20 2 -13 14 11 20 59 65 85
79 25 14 110 15 136 2z m-2441 -23 c0 -13 -7 -32 -15 -43 -18 -24 -19 -38 -2
-28 8 5 8 2 -2 -9 -15 -18 -26 -23 -16 -7 8 14 -1 13 -25 -2 -38 -24 -69 15
-55 69 6 24 7 24 24 9 18 -16 20 -15 47 8 36 32 44 32 44 3z m14 -133 c-19
-40 -58 -61 -80 -43 -7 6 -19 9 -26 6 -8 -4 -7 -6 5 -6 9 -1 17 -5 17 -11 0
-16 -18 -12 -60 15 -42 26 -59 71 -45 117 18 58 45 63 45 9 0 -23 7 -46 16
-55 18 -19 20 -19 46 -5 15 8 19 8 14 0 -9 -14 0 -14 25 -1 24 13 48 60 51 97
1 15 3 2 5 -29 3 -40 -1 -69 -13 -94z m2401 76 c30 -25 -26 -90 -77 -90 l-23
1 27 22 c26 21 27 24 13 44 -12 18 -22 21 -50 16 -34 -5 -49 9 -22 21 19 9
117 -1 132 -14z m-409 -8 c11 -6 26 -17 32 -25 9 -11 2 -13 -38 -13 -27 0 -47
3 -44 8 8 13 -20 9 -40 -5 -16 -11 -13 -15 26 -36 l43 -23 -38 6 c-22 3 -45
10 -53 17 -22 18 -17 56 7 62 12 3 18 10 15 15 -7 12 65 8 90 -6z m183 -38
c36 -46 22 -96 -32 -119 -26 -11 -36 -11 -58 1 -64 33 -44 123 31 137 14 2 28
5 32 6 4 0 16 -11 27 -25z m113 -109 c42 -28 88 -113 88 -162 0 -19 -7 -47
-14 -62 -17 -32 -71 -62 -95 -53 -76 29 -115 85 -126 185 -8 65 9 81 19 17 9
-57 50 -100 103 -107 38 -5 43 -3 54 20 24 53 -11 132 -71 157 -16 7 -30 16
-30 21 0 17 35 9 72 -16z m-280 -21 c-35 -24 -64 -89 -60 -137 3 -38 6 -42 31
-45 22 -3 38 6 73 41 25 25 44 54 44 66 0 12 4 20 8 17 14 -9 -7 -129 -27
-156 -14 -20 -28 -26 -66 -28 -52 -3 -83 16 -111 71 -27 50 12 133 79 169 40
22 59 23 29 2z m3 -43 c-8 -17 -11 -31 -6 -31 6 0 8 -6 5 -14 -11 -29 25 -25
47 5 12 17 23 28 26 25 7 -6 -37 -64 -54 -70 -9 -4 -12 -1 -8 7 4 6 -1 3 -9
-7 -13 -16 -13 -22 -3 -28 7 -5 2 -8 -14 -8 -48 0 -47 63 2 132 27 37 36 30
14 -11z m-1580 23 c23 -9 45 -58 44 -96 l-1 -33 -13 40 c-8 22 -14 32 -14 23
-1 -9 -4 -24 -8 -34 -3 -10 -2 -15 3 -12 5 4 9 -13 8 -38 0 -24 2 -44 6 -44
12 0 37 34 64 87 39 79 92 104 144 67 30 -21 28 -37 -10 -81 -25 -28 -28 -35
-13 -29 49 20 74 24 78 13 2 -6 20 -2 49 13 25 12 52 20 59 17 8 -3 3 -6 -11
-6 -20 -1 -22 -3 -10 -11 10 -6 11 -10 3 -10 -7 0 -13 -9 -13 -20 0 -19 -7
-20 -89 -20 -95 0 -94 0 -74 50 23 56 -27 59 -64 4 -10 -15 -28 -37 -40 -50
-14 -15 -17 -25 -10 -29 7 -3 -1 -3 -16 0 -21 4 -27 2 -21 -6 4 -7 3 -9 -4 -5
-14 8 -114 -31 -129 -51 -27 -35 -12 -1 17 39 33 45 38 79 16 97 -11 9 -19 9
-36 -1 -27 -17 -84 -132 -77 -157 4 -18 -16 -37 -35 -33 -5 1 -8 -3 -8 -8 0
-5 -7 -10 -15 -10 -13 0 -15 7 -9 38 4 20 10 44 14 52 4 8 10 36 14 61 17 119
121 213 201 183z m1875 -50 c6 -18 8 -43 5 -55 -6 -18 -13 -20 -52 -16 -24 2
-50 10 -57 18 -16 17 -31 73 -17 65 5 -3 11 -3 14 1 2 5 2 3 1 -4 -4 -14 31
-27 47 -17 6 3 9 17 6 30 -2 13 0 21 4 18 5 -3 9 0 9 7 0 22 28 -11 40 -47z
m-645 11 c14 -13 25 -33 25 -45 0 -21 -14 -27 -25 -10 -12 20 -52 11 -63 -15
-23 -50 25 -107 91 -107 28 0 52 8 122 41 6 2 3 -4 -5 -15 -14 -17 -14 -18 2
-6 10 8 16 19 15 24 -1 6 4 13 11 15 28 11 9 -28 -29 -55 -38 -28 -78 -34 -62
-9 3 6 1 7 -6 3 -9 -6 -9 -11 1 -24 7 -9 8 -13 2 -10 -5 4 -30 2 -54 -3 -49
-11 -89 0 -127 34 -49 44 -37 153 20 187 42 26 53 25 82 -5z m-2133 -6 c16 -6
28 -16 28 -21 0 -6 7 -7 16 -4 8 3 13 2 10 -3 -3 -4 -1 -22 3 -39 13 -45 -2
-53 -58 -30 -41 18 -53 19 -102 9 -155 -32 -294 -184 -340 -370 -21 -85 -24
-163 -9 -255 5 -33 14 -93 20 -133 7 -40 18 -77 26 -84 8 -6 21 -37 30 -68 34
-118 100 -204 219 -281 75 -49 80 -65 8 -26 -127 70 -242 223 -294 392 -50
162 -49 372 3 522 16 48 31 92 32 97 7 28 59 122 93 166 41 54 148 133 169
125 8 -3 15 -2 18 2 8 12 99 13 128 1z m1363 -78 c3 -10 3 -25 -1 -34 -6 -16
32 -45 43 -33 3 3 -5 10 -18 15 -17 7 -19 10 -6 10 12 1 17 9 17 27 0 26 0 26
65 22 47 -3 70 -9 83 -22 9 -11 11 -16 5 -12 -9 5 -13 0 -13 -13 0 -12 -6 -21
-14 -21 -8 0 -17 -9 -21 -19 -9 -29 -31 -44 -50 -33 -14 7 -12 11 14 22 41 16
35 34 -12 38 -27 2 -37 -1 -37 -12 0 -8 6 -16 13 -19 6 -2 9 -7 5 -11 -3 -4
-15 -3 -25 2 -10 5 -44 15 -75 22 -61 14 -77 27 -32 26 37 -1 56 30 30 50 -19
14 -19 14 1 14 12 0 24 -8 28 -19z m-422 -26 c-3 -9 -8 -14 -10 -11 -3 3 -2 9
2 15 9 16 15 13 8 -4z m-345 -18 c23 -18 42 -64 46 -112 2 -25 8 -51 14 -57 8
-8 1 -23 -26 -52 -20 -23 -47 -54 -59 -71 l-22 -30 15 60 c17 66 13 122 -12
161 -23 35 -50 30 -78 -15 -22 -35 -24 -46 -21 -130 3 -50 9 -108 16 -129 6
-21 9 -49 7 -62 -4 -21 -9 -16 -32 35 -21 45 -29 77 -30 126 0 37 -4 62 -7 57
-4 -6 -7 7 -7 28 -1 22 -6 53 -11 71 -13 46 -4 68 40 99 60 41 131 50 167 21z
m2618 -28 c-3 -17 0 -44 8 -63 l14 -33 -66 3 c-42 1 -60 -1 -51 -7 11 -7 9 -9
-9 -9 -28 0 -47 42 -32 69 7 14 112 67 139 71 2 0 1 -14 -3 -31z m-1916 -3
c98 -19 101 -20 198 -79 98 -60 140 -103 187 -197 28 -56 35 -81 35 -129 0
-73 -11 -103 -51 -143 -36 -37 -48 -32 -17 7 29 37 37 125 14 160 -9 14 -40
37 -68 51 -58 30 -98 28 -178 -7 -49 -22 -123 -87 -114 -101 3 -5 1 -7 -5 -6
-16 5 -110 -92 -137 -142 -56 -104 -237 -222 -358 -235 -103 -11 -144 -1 -202
49 -29 25 -65 72 -85 108 -30 56 -34 72 -34 138 0 64 5 85 32 142 37 78 97
161 108 150 5 -4 5 -2 2 5 -10 16 73 82 168 132 187 101 336 129 505 97z m387
-17 c3 -11 9 -16 14 -14 4 3 6 -8 4 -24 -4 -32 -44 -111 -56 -111 -4 0 -30 21
-58 46 -28 25 -54 43 -59 41 -4 -3 -19 3 -32 14 -14 11 -18 17 -9 14 18 -7
109 32 109 45 0 11 38 17 64 11 10 -2 21 -12 23 -22z m1686 -8 c23 -22 50 -53
60 -70 l18 -31 -29 0 c-16 0 -35 -7 -42 -15 -10 -12 -10 -15 0 -15 8 0 10 -3
7 -6 -7 -7 -114 61 -134 85 -7 8 -13 32 -13 53 l0 38 45 0 c39 0 52 -6 88 -39z
m-324 -137 c-17 -18 -25 -21 -36 -13 -7 6 -13 8 -13 4 0 -4 -7 -1 -17 6 -13
11 -17 11 -20 2 -3 -7 -10 -13 -16 -13 -6 0 0 11 13 25 13 14 25 23 28 21 6
-7 62 53 63 67 1 7 6 -8 11 -32 9 -38 7 -46 -13 -67z m222 45 c8 0 29 -12 45
-25 31 -27 13 -22 -21 5 -11 9 3 -9 32 -40 36 -39 54 -68 59 -95 9 -46 -10
-168 -37 -240 -28 -74 -111 -209 -149 -241 -140 -119 -391 -243 -420 -208 -9
10 0 16 40 28 127 37 428 260 404 299 -4 7 -3 8 4 4 13 -8 77 121 92 186 14
63 12 153 -4 193 -18 42 -69 75 -117 75 -27 0 -51 -11 -92 -41 -69 -51 -125
-130 -172 -240 -75 -178 -123 -263 -191 -337 -79 -87 -127 -119 -68 -46 21 27
51 64 66 82 36 43 89 148 118 237 13 38 39 103 58 145 20 41 36 78 36 82 2 17
141 158 170 173 21 10 47 14 81 10 28 -2 57 -5 66 -6z m-3324 -42 c-8 -5 -5
-7 8 -6 38 3 45 -1 65 -33 14 -23 18 -46 16 -88 -3 -60 -25 -120 -26 -69 0 35
-35 78 -76 95 -105 44 -299 -31 -329 -127 -10 -30 -24 -12 -16 19 23 78 100
173 166 204 30 14 60 17 122 16 45 -2 76 -6 70 -11z m3518 -37 c8 -16 15 -52
15 -79 0 -47 -2 -51 -27 -57 -16 -3 -33 -7 -40 -9 -9 -3 -11 5 -7 24 3 15 -1
44 -10 65 -21 51 -20 61 7 74 35 17 45 14 62 -18z m-1681 -13 c20 -27 20 -28
2 -61 -10 -19 -28 -37 -39 -40 -28 -7 -34 0 -8 9 27 8 27 25 0 18 -12 -4 -25
0 -30 8 -15 24 -10 31 15 25 16 -4 26 -1 29 8 7 17 -1 26 -22 26 -14 0 -14 -2
-1 -10 13 -8 12 -10 -3 -10 -10 0 -20 6 -23 14 -3 8 -15 17 -27 21 -22 7 -22
7 3 15 45 15 82 7 104 -23z m1211 3 c3 -5 2 -10 -4 -10 -5 0 -13 5 -16 10 -3
6 -2 10 4 10 5 0 13 -4 16 -10z m302 -47 c10 -25 9 -30 -3 -30 -8 0 -12 3 -9
5 7 7 -26 43 -34 38 -3 -2 -7 7 -7 20 -2 23 0 24 19 11 12 -8 27 -27 34 -44z
m-329 35 c13 -13 -17 -61 -51 -80 -21 -11 -21 -11 -3 16 9 15 15 33 12 39 -2
7 -5 5 -5 -4 -1 -9 -9 -24 -20 -33 -28 -25 -35 3 -10 43 20 32 55 41 77 19z
m-2630 -34 c21 -15 109 -178 117 -216 6 -27 -22 -10 -43 27 -14 23 -29 34 -51
37 -28 4 -31 2 -31 -23 0 -48 17 -76 72 -119 29 -23 54 -46 56 -50 2 -4 -23 1
-54 13 -73 27 -153 103 -179 170 -24 64 -12 145 25 164 34 17 61 16 88 -3z
m-366 -53 c26 -26 29 -34 21 -58 -13 -38 -37 -40 -77 -6 -18 15 -41 33 -51 39
-14 8 -17 17 -11 38 7 27 10 28 48 23 27 -4 50 -15 70 -36z m3221 -18 c-8 -20
-20 -6 -20 22 0 23 1 24 12 8 7 -9 11 -23 8 -30z m-316 18 c10 -16 7 -23 -17
-47 -32 -31 -42 -58 -12 -31 19 17 52 23 52 10 -1 -13 -29 -59 -30 -48 -1 12
-30 -25 -30 -38 0 -4 5 -5 12 -1 8 5 9 -1 5 -22 -9 -47 -26 -84 -37 -84 -6 0
-18 -7 -26 -15 -14 -13 -13 -15 5 -15 21 0 20 -2 -8 -57 -26 -52 -145 -213
-158 -213 -5 0 76 118 95 139 18 19 29 48 36 101 3 25 17 81 31 124 13 43 22
83 18 89 -4 6 -1 7 7 2 10 -6 12 -4 6 10 -7 19 20 115 32 115 4 0 13 -9 19
-19z m350 -9 c-10 -10 -17 -25 -18 -33 0 -9 -2 -10 -5 -2 -6 13 26 67 34 58 3
-3 -2 -13 -11 -23z m48 18 c3 -6 -1 -7 -9 -4 -18 7 -21 14 -7 14 6 0 13 -4 16
-10z m30 -114 c-13 -56 -14 -57 -8 -11 4 28 7 68 6 90 -1 37 -1 38 7 11 6 -18
4 -50 -5 -90z m-675 89 c64 -33 85 -139 55 -283 -18 -90 -70 -206 -107 -239
-15 -13 -10 0 15 47 79 146 72 359 -15 423 -33 25 -70 17 -86 -18 -6 -14 -16
-25 -22 -25 -28 0 8 86 43 100 34 14 85 11 117 -5z m414 -3 c3 -5 -1 -9 -9 -9
-8 0 -12 4 -9 9 3 4 7 8 9 8 2 0 6 -4 9 -8z m216 -12 c0 -11 -7 -20 -15 -20
-27 0 -18 30 13 39 1 1 2 -8 2 -19z m-1461 -15 c8 -8 16 -36 19 -64 4 -41 0
-58 -22 -94 -59 -103 -194 -166 -267 -126 -23 12 -49 66 -42 86 8 21 20 15 27
-12 8 -31 40 -49 80 -42 52 8 152 74 167 109 15 37 15 67 -2 82 -8 8 -10 3 -5
-19 4 -20 1 -37 -8 -50 -21 -29 -26 -16 -15 35 6 24 7 61 4 83 -7 38 -7 38 22
31 15 -3 34 -12 42 -19z m1364 8 c-7 -2 -19 -2 -25 0 -7 3 -2 5 12 5 14 0 19
-2 13 -5z m124 -13 c-1 -11 -5 -20 -9 -20 -10 0 -10 4 -2 24 8 22 13 20 11 -4z
m-100 -29 c10 -124 -15 -185 -114 -283 -88 -87 -116 -109 -186 -147 -62 -33
-72 -37 -62 -21 4 6 1 18 -6 26 -10 12 -10 17 1 27 10 9 11 9 6 0 -12 -22 5
-36 19 -16 27 38 125 234 129 258 6 34 71 130 104 152 39 26 54 32 82 30 19
-1 25 -7 27 -26z m293 -50 c0 -9 -9 -34 -19 -57 -17 -36 -24 -42 -61 -48 -24
-4 -44 -5 -46 -3 -6 6 20 67 28 67 4 0 8 8 8 19 0 30 26 86 33 70 4 -10 6 -10
6 3 2 29 26 26 39 -5 6 -16 12 -37 12 -46z m-231 54 c8 0 16 -7 18 -15 4 -11
2 -12 -5 -2 -10 14 -45 5 -36 -9 3 -5 10 -7 15 -4 5 4 9 4 9 1 0 -3 -9 -10
-20 -16 -18 -10 -20 -8 -20 25 0 26 3 34 13 28 6 -4 18 -8 26 -8z m-209 -15
c-6 -11 -16 -18 -21 -14 -6 3 -3 12 8 20 24 18 26 17 13 -6z m-3244 -21 c9
-15 -20 -42 -40 -37 -15 3 -15 5 -1 26 18 24 30 28 41 11z m618 -59 c20 -27
32 -50 27 -50 -5 0 -12 6 -14 13 -4 9 -8 8 -16 -3 -10 -14 -16 -7 -12 13 1 5
-3 6 -8 3 -12 -8 -41 32 -41 56 0 33 28 19 64 -32z m2827 11 c7 11 9 10 9 -3
0 -10 -4 -18 -8 -18 -12 0 -32 22 -32 35 0 5 5 2 11 -9 9 -15 13 -16 20 -5z
m14 -79 l-28 -27 24 31 c13 17 26 30 28 27 3 -2 -8 -16 -24 -31z m-305 -2 c-6
-11 -13 -20 -16 -20 -2 0 0 9 6 20 6 11 13 20 16 20 2 0 0 -9 -6 -20z m-3290
-25 c0 -8 -4 -15 -10 -15 -5 0 -7 7 -4 15 4 8 8 15 10 15 2 0 4 -7 4 -15z
m3756 -30 c-9 -13 -23 -19 -41 -17 -24 3 -25 1 -15 -17 9 -18 5 -27 -30 -65
-38 -41 -80 -58 -80 -31 0 23 52 85 71 85 11 0 17 5 14 10 -4 6 -11 8 -16 5
-13 -8 -11 -1 7 38 16 33 16 33 60 23 41 -10 43 -12 30 -31z m-205 12 c-10 -9
-11 -8 -5 6 3 10 9 15 12 12 3 -3 0 -11 -7 -18z m-3534 -22 c-7 -14 -16 -25
-20 -25 -8 0 -2 14 16 38 15 19 16 14 4 -13z m1563 0 c0 -14 -5 -24 -11 -22
-6 1 -13 -7 -15 -17 -1 -10 -9 -26 -18 -34 -12 -13 -18 -13 -30 -2 -9 7 -16
18 -15 24 0 7 2 6 6 -1 2 -7 9 -13 14 -13 6 0 7 5 4 10 -3 6 -2 10 4 10 5 0
19 16 31 35 26 42 30 43 30 10z m1947 2 c0 -7 -9 -13 -19 -13 -23 0 -24 13 0
19 9 3 17 5 18 6 0 0 1 -5 1 -12z m-763 -30 c84 -48 106 -122 62 -209 -22 -46
-78 -118 -90 -118 -2 0 5 18 16 40 25 51 34 146 16 180 -34 63 -96 20 -138
-95 l-30 -80 4 116 c4 116 18 170 48 182 29 12 75 5 112 -16z m-279 -39 c20
-17 45 -49 56 -70 36 -70 49 -198 20 -198 -5 0 -14 30 -21 67 -12 64 -28 93
-54 100 -47 13 -80 14 -105 3 -24 -10 -30 -19 -34 -53 -3 -33 2 -53 26 -97
l29 -55 -30 28 c-19 19 -31 24 -34 16 -7 -21 -58 77 -64 124 -12 83 24 139
101 158 55 13 74 9 110 -23z m962 -10 c2 -17 0 -19 -7 -8 -5 8 -6 18 -4 22 8
12 10 10 11 -14z m-2602 -18 c15 -29 15 -30 -9 -30 -30 0 -76 -52 -76 -85 0
-35 39 -72 82 -78 21 -3 40 -1 43 4 11 17 84 49 111 49 l28 0 -30 -31 c-52
-55 -100 -74 -183 -72 -114 3 -147 36 -138 142 3 49 8 59 42 87 58 51 108 56
130 14z m-875 -38 c0 -23 -17 -4 -23 25 -5 26 -4 26 9 8 8 -10 14 -25 14 -33z
m1427 -3 c-27 -24 -47 -50 -48 -62 -1 -14 -3 -16 -6 -6 -7 27 11 57 52 87 57
42 58 29 2 -19z m2203 -39 c-31 -43 -61 -71 -70 -65 -4 3 -11 -1 -13 -7 -3 -7
-6 -3 -6 10 -1 12 -7 22 -13 22 -28 1 63 65 91 65 l29 0 -18 -25z m-2147 -28
c8 -17 8 -28 1 -40 -16 -24 -61 -39 -81 -26 -26 16 -26 32 -1 36 15 2 30 17
43 40 11 21 21 32 23 25 2 -6 9 -22 15 -35z m1882 28 c-3 -5 -1 -10 6 -10 19
0 7 -8 -37 -25 -29 -12 -35 -12 -22 -2 10 8 16 17 13 20 -3 4 -2 5 1 2 4 -2
13 2 21 10 17 17 27 20 18 5z m-2014 -27 c-5 -10 -17 -42 -27 -72 -32 -104
-113 -163 -193 -141 -60 16 -77 60 -46 120 18 35 36 45 95 55 l45 8 -38 -42
c-42 -46 -41 -61 5 -61 21 0 40 10 65 35 19 19 32 39 29 44 -4 5 10 26 29 47
36 37 55 42 36 7z m2161 -53 c-7 -20 -10 -21 -15 -6 -4 10 -11 14 -17 11 -5
-3 -10 -2 -10 4 0 14 33 31 43 22 4 -4 4 -18 -1 -31z m-39 -20 c16 -19 15 -21
-7 -35 -34 -22 -176 -55 -176 -41 0 6 27 26 60 43 33 18 60 28 60 23 0 -5 -5
-12 -10 -15 -12 -7 -4 -25 11 -25 6 0 8 4 4 9 -3 5 -1 12 5 16 5 3 10 15 10
26 0 25 21 24 43 -1z m-386 -16 c-3 -3 -12 -4 -19 -1 -8 3 -5 6 6 6 11 1 17
-2 13 -5z m-2986 -34 c20 0 52 -50 41 -66 -10 -13 -35 -17 -27 -4 3 5 -1 10
-9 10 -9 0 -16 3 -17 8 -1 10 -6 34 -11 52 -3 8 -3 12 -1 8 3 -5 13 -8 24 -8z
m2958 -24 c31 -16 51 -59 51 -108 0 -53 -48 -126 -102 -154 -33 -17 -119 -19
-115 -3 1 6 -4 14 -12 17 -9 3 -11 0 -6 -7 4 -8 -7 -6 -32 4 -58 24 -57 30 5
30 31 0 66 4 76 9 14 7 17 6 12 -2 -5 -8 -2 -10 9 -6 9 4 13 9 10 12 -3 3 4
16 16 28 30 32 38 108 13 135 -17 19 -26 20 -89 14 -38 -4 -83 -14 -98 -22
-16 -8 -31 -13 -33 -11 -10 10 56 60 97 73 53 17 155 13 198 -9z m-709 -11
c14 -8 45 -24 70 -36 40 -20 96 -66 88 -74 -2 -2 -36 8 -77 21 -126 41 -200
27 -202 -39 l-2 -32 -7 35 c-6 30 -8 31 -9 8 0 -14 2 -33 5 -42 7 -18 101 -74
142 -85 26 -7 26 -8 6 -19 -41 -22 -183 -15 -169 9 3 5 0 6 -8 3 -10 -4 -23
12 -42 51 -38 77 -32 136 19 182 32 30 41 33 98 33 37 0 73 -6 88 -15z m924 1
c-6 -16 -69 -30 -86 -20 -7 5 1 12 23 20 47 17 70 17 63 0z m-560 -56 c27 -26
33 -107 11 -149 -32 -62 -119 -79 -178 -33 -39 29 -48 59 -33 107 27 89 142
132 200 75z m260 14 c16 -6 23 -34 8 -34 -10 0 -32 22 -32 32 0 10 3 10 24 2z
m-1245 -69 c21 -21 21 -125 1 -151 -11 -13 -11 -16 -2 -10 11 7 12 4 4 -10 -6
-11 -17 -28 -25 -38 -13 -18 -14 -15 -10 27 8 81 -37 120 -100 85 -37 -20 -45
-18 -41 11 11 70 20 86 55 98 41 15 97 9 118 -12z m-1508 -22 c13 -16 12 -17
-3 -4 -10 7 -18 15 -18 17 0 8 8 3 21 -13z m1280 -75 c9 -7 29 -35 44 -63 17
-29 22 -44 12 -37 -22 19 -77 11 -93 -13 -11 -16 -11 -25 -1 -44 7 -14 19 -27
27 -29 11 -4 10 1 -4 17 -16 17 -17 25 -8 46 12 27 49 34 69 14 9 -9 8 -18 -3
-35 -10 -15 -13 -31 -8 -46 6 -20 5 -21 -9 -10 -9 8 -21 11 -26 8 -18 -11
-101 35 -116 65 -19 36 -19 98 -1 118 18 20 96 26 117 9z m169 -18 c35 -35 24
-81 -14 -55 -30 21 -36 19 -36 -15 0 -32 -14 -40 -24 -14 -13 34 -6 73 16 88
29 20 34 20 58 -4z m235 -31 c31 -27 35 -37 35 -79 0 -41 -4 -52 -29 -73 -34
-28 -106 -42 -142 -28 -24 10 -23 10 6 10 23 1 35 8 48 30 18 31 23 76 7 66
-5 -3 -7 0 -4 9 6 17 -48 32 -68 19 -9 -5 -3 -9 17 -13 25 -4 31 -10 33 -37 3
-25 -2 -35 -23 -49 -14 -9 -28 -14 -31 -11 -3 3 4 10 15 17 30 15 19 27 -23
25 -40 -2 -44 5 -18 31 9 10 17 20 17 24 0 4 9 23 20 43 15 29 26 37 55 40 19
2 38 4 42 5 4 1 23 -12 43 -29z m-1540 11 c3 -6 -1 -7 -9 -4 -18 7 -21 14 -7
14 6 0 13 -4 16 -10z m2145 -6 c0 -3 -20 -33 -44 -65 -54 -71 -64 -110 -41
-146 14 -22 22 -24 52 -20 69 12 88 33 116 132 l15 50 -1 -77 c0 -42 -4 -75
-9 -72 -4 3 -5 -1 -3 -8 3 -7 -8 -34 -23 -59 -88 -139 -289 -86 -268 70 8 59
44 104 126 159 62 41 80 49 80 36z m397 -72 c34 -25 43 -39 52 -80 16 -76 -7
-129 -72 -164 -43 -23 -72 -22 -123 3 -34 16 -48 31 -67 72 -14 29 -28 70 -31
92 l-7 40 64 -67 c36 -38 71 -68 79 -68 54 0 73 91 31 148 -13 17 -31 46 -42
65 l-19 34 46 -22 c26 -13 66 -37 89 -53z m-1229 -66 c22 -27 20 -57 -3 -72
-26 -17 -55 -12 -80 12 -21 21 -19 31 10 58 26 24 56 25 73 2z m29 -28 c-3 -8
-6 -5 -6 6 -1 11 2 17 5 13 3 -3 4 -12 1 -19z m-217 -24 c0 -3 -11 -19 -25
-36 -20 -23 -23 -33 -15 -49 6 -10 14 -18 18 -17 8 1 39 -9 64 -23 12 -6 20
-4 27 9 10 16 10 16 11 -1 0 -10 -13 -31 -29 -47 -16 -16 -27 -30 -26 -32 2
-2 -22 -2 -53 -1 -82 4 -93 22 -83 129 2 20 43 57 51 45 4 -8 12 -5 25 9 17
19 35 26 35 14z m50 -13 c-15 -30 -12 -41 12 -41 l22 0 -21 -21 c-16 -16 -28
-20 -48 -15 -23 6 -26 11 -21 34 7 27 39 62 57 62 6 0 5 -8 -1 -19z m226 -68
c6 -21 1 -31 -21 -50 -24 -21 -30 -22 -48 -10 -12 7 -23 20 -25 28 -2 8 2 6 8
-3 9 -15 14 -15 24 -5 10 9 11 14 2 20 -7 6 -3 7 9 4 18 -3 20 0 17 30 -2 18
-8 36 -13 39 -5 3 -9 11 -9 17 1 19 49 -41 56 -70z m67 -47 c1 -31 -6 -44 -35
-72 -41 -38 -79 -44 -118 -17 -44 30 -59 56 -55 93 2 19 4 42 4 50 1 8 12 -5
25 -30 28 -55 61 -70 99 -45 36 23 38 86 5 124 -12 14 -1 5 26 -20 40 -38 48
-53 49 -83z m-366 47 c-3 -10 -5 -4 -5 12 0 17 2 24 5 18 2 -7 2 -21 0 -30z
m-988 -14 c-7 -14 -17 -19 -30 -16 -10 3 -19 2 -19 -3 0 -4 -10 -6 -22 -5 -13
1 -29 3 -35 4 -19 2 -15 29 5 34 9 3 39 5 65 6 45 1 47 0 36 -20z m55 2 c3 -4
21 -7 41 -4 40 4 42 0 15 -27 -16 -16 -24 -18 -52 -8 -41 13 -52 23 -44 37 8
13 33 14 40 2z m-184 -22 c0 -6 -17 -30 -37 -53 l-37 -43 -13 25 c-19 35 -17
37 29 65 42 25 58 26 58 6z m1200 1 c0 -5 -2 -10 -4 -10 -3 0 -8 5 -11 10 -3
6 -1 10 4 10 6 0 11 -4 11 -10z m-872 -6 c18 -5 21 -11 16 -28 -9 -29 -7 -29
-53 -15 -35 10 -39 14 -30 30 10 20 28 23 67 13z m-127 -32 c113 -25 134 -38
246 -145 67 -65 117 -125 170 -205 71 -108 133 -224 133 -249 0 -13 153 -207
172 -219 13 -8 13 -7 -56 101 -28 44 -54 81 -57 83 -4 2 -4 12 -2 23 5 16 1
20 -13 17 -15 -2 -20 4 -22 29 -2 21 -11 37 -24 44 -15 8 -19 18 -16 45 2 19
0 34 -4 34 -4 0 -8 -4 -8 -10 0 -21 -17 -9 -37 27 l-21 36 21 19 c22 18 22 18
-10 12 -39 -8 -60 20 -37 51 8 10 14 26 14 34 -1 10 -7 5 -16 -11 -18 -34 -25
-35 -43 -7 -10 17 -10 23 0 29 7 5 9 15 5 26 -7 18 -8 18 -20 2 -12 -16 -15
-15 -41 12 l-29 30 24 25 c22 23 22 25 5 19 -11 -4 -26 -11 -32 -17 -9 -7 -13
-5 -13 7 0 9 -3 15 -7 14 -13 -4 -73 45 -73 59 0 7 -3 12 -7 12 -21 -3 -24 3
-12 19 12 15 12 16 -2 5 -20 -16 -29 -7 -29 29 0 33 1 33 43 12 50 -26 80 -56
65 -67 -9 -6 -8 -7 4 -4 39 13 283 -302 290 -375 2 -13 5 -25 8 -28 3 -3 16
-32 29 -65 13 -33 32 -71 41 -85 10 -14 21 -36 25 -50 4 -14 20 -41 34 -60 52
-68 76 -115 49 -93 -7 6 -27 10 -45 9 -17 0 -31 3 -30 9 1 5 -16 13 -38 18
-274 59 -460 128 -580 213 -78 55 -219 199 -267 271 -79 120 -73 260 15 313
40 25 90 25 198 2z m-292 -80 c4 -9 9 -39 10 -67 1 -27 4 -57 7 -67 3 -12 -3
-18 -26 -23 -17 -4 -34 -4 -38 -1 -9 9 -15 121 -9 148 7 28 43 34 56 10z
m2443 -130 c4 -16 -2 -17 -65 -14 -50 3 -68 1 -63 -7 4 -6 29 -11 56 -11 107
0 230 -52 261 -110 10 -19 31 -64 46 -100 50 -117 26 -243 -67 -344 -51 -55
-109 -76 -219 -77 -42 0 -70 -3 -63 -6 21 -8 13 -39 -13 -51 -48 -22 -71 -12
-37 15 9 8 11 11 3 7 -11 -5 -13 -3 -8 9 7 19 -13 23 -29 7 -8 -8 -11 -2 -12
19 0 16 -15 62 -33 102 -38 87 -45 134 -30 182 16 48 83 107 119 106 l27 -1
-33 -14 c-50 -22 -74 -68 -69 -136 4 -77 39 -122 109 -143 176 -52 328 47 328
215 0 75 -21 119 -92 195 -66 69 -133 96 -260 103 -89 4 -112 21 -35 24 l42 1
-45 7 c-25 4 -35 8 -22 8 12 1 22 6 22 11 0 10 42 17 126 19 42 2 53 -1 56
-16z m196 -30 c35 -26 44 -70 18 -91 -12 -10 -18 -8 -31 12 -8 13 -47 39 -85
56 -39 18 -68 36 -65 41 3 5 33 8 68 7 47 -2 70 -8 95 -25z m-453 1 c-32 -18
-183 -73 -200 -73 -24 0 66 45 130 66 83 27 111 29 70 7z m-2151 -30 c12 -24
12 -29 -3 -41 -14 -12 -14 -12 4 -8 16 5 29 -5 56 -42 32 -43 34 -50 24 -80
l-11 -32 -26 27 c-24 26 -80 110 -107 161 -10 20 -9 23 11 32 34 13 36 12 52
-17z m2169 -10 c-7 -2 -19 -2 -25 0 -7 3 -2 5 12 5 14 0 19 -2 13 -5z m-813
-41 c14 -10 34 -35 45 -55 19 -34 19 -37 2 -72 -17 -36 -42 -54 -55 -40 -4 3
2 13 13 21 19 14 19 15 1 49 -20 37 -68 65 -113 65 -36 0 -113 -47 -141 -87
-42 -59 -64 -151 -60 -243 l4 -85 -19 60 c-11 35 -16 74 -13 95 24 159 24 161
67 216 39 50 59 70 43 42 -4 -7 3 -3 14 9 19 19 50 33 107 47 31 7 78 -3 105
-22z m892 -17 c99 -21 177 -62 212 -111 51 -74 37 -214 -21 -214 -8 0 -12 -4
-8 -9 3 -5 -3 -12 -13 -15 -21 -7 -134 -4 -127 3 3 2 -7 17 -20 33 -26 31 -31
53 -15 63 6 3 10 -1 10 -10 0 -28 57 -74 83 -68 48 12 87 68 87 126 0 97 -151
192 -330 207 l-85 7 80 1 c44 1 110 -5 147 -13z m273 -53 c-2 -2 5 -12 17 -22
21 -17 18 -41 -5 -39 -9 0 -9 2 1 6 16 6 15 20 -3 27 -8 3 -14 0 -12 -6 1 -6
-3 -12 -10 -15 -8 -3 -9 4 -4 24 7 22 4 34 -13 53 l-21 25 27 -24 c16 -14 26
-26 23 -29z m184 32 c37 -8 66 -44 57 -72 -5 -16 -74 -58 -81 -50 -15 17 -54
111 -50 118 7 12 30 13 74 4z m-2534 -125 c69 -70 182 -153 246 -180 66 -27
70 -31 60 -47 -5 -9 -23 -3 -72 23 -35 20 -88 47 -118 61 -43 20 -52 28 -48
44 6 24 -11 38 -19 16 -5 -13 -12 -11 -43 10 -50 33 -84 79 -76 104 4 11 10
20 14 20 4 0 29 -23 56 -51z m2380 -19 c-4 -6 -12 -7 -18 -3 -8 5 -8 2 0 -9 7
-8 10 -18 6 -21 -3 -4 -1 -7 6 -7 7 0 11 6 8 14 -8 20 4 28 21 13 13 -10 15
-9 9 6 -4 11 -3 16 3 12 6 -3 10 -18 9 -33 0 -15 -3 -21 -6 -14 -2 6 -10 9
-15 6 -6 -4 -21 -8 -33 -10 -18 -1 -22 3 -22 22 0 13 3 27 8 30 4 2 5 12 2 22
-6 16 -6 16 11 0 9 -10 14 -22 11 -28z m175 9 c0 -6 9 -22 20 -36 11 -14 20
-38 20 -52 0 -34 -26 -71 -49 -71 -37 0 -45 -26 -22 -74 18 -36 20 -48 10 -69
-14 -31 -44 -40 -78 -24 -30 14 -29 33 2 30 21 -3 21 -2 4 11 -12 10 -15 16
-7 21 6 4 22 32 36 62 18 42 24 73 24 128 0 69 5 81 33 84 4 1 7 -4 7 -10z
m-427 -26 c-7 -2 -21 -2 -30 0 -10 3 -4 5 12 5 17 0 24 -2 18 -5z m-66 -21
c-10 -10 -14 -22 -10 -27 5 -4 2 -5 -5 -1 -11 6 -10 12 4 27 9 10 19 19 22 19
3 0 -2 -8 -11 -18z m359 -74 c0 -16 -2 -16 -18 -1 -11 10 -18 12 -18 5 0 -7 1
-13 2 -14 1 -2 -4 -14 -11 -28 -11 -23 -11 -24 3 -6 9 10 12 24 9 30 -4 6 1 5
9 -2 18 -14 14 -43 -5 -39 -7 1 -11 -4 -9 -12 3 -12 1 -12 -13 -1 -11 9 -14
22 -10 42 5 20 3 28 -7 28 -10 0 -10 2 -1 8 24 15 69 8 69 -10z m-342 -35 c11
-13 16 -23 13 -23 -10 0 -37 31 -37 42 0 6 1 9 3 7 1 -2 11 -14 21 -26z m233
-33 c1 -11 -2 -22 -8 -25 -5 -3 -6 1 -2 11 5 14 3 15 -18 4 l-24 -11 25 20
c14 11 25 21 25 21 1 0 1 -9 2 -20z m-1928 -41 c35 -10 63 -41 49 -54 -8 -9
-118 51 -118 64 0 7 6 11 14 8 8 -3 32 -11 55 -18z m1981 -3 c0 -3 -4 -8 -10
-11 -5 -3 -10 -1 -10 4 0 6 5 11 10 11 6 0 10 -2 10 -4z m-1820 -46 c41 -12
83 -23 92 -26 10 -3 15 -11 12 -19 -6 -16 -34 -13 -119 11 -61 17 -80 28 -71
43 9 14 -2 15 86 -9z m272 -84 c15 -3 60 -33 101 -65 116 -92 113 -103 -8 -26
-64 42 -182 100 -217 109 -16 3 -28 13 -28 20 0 11 13 9 63 -9 34 -13 74 -26
89 -29z m-82 44 c8 -5 11 -10 5 -10 -5 0 -17 5 -25 10 -8 5 -10 10 -5 10 6 0
17 -5 25 -10z m1659 -40 c-6 -16 -15 -30 -21 -30 -5 0 -6 -5 -3 -10 11 -17
-15 -40 -44 -39 -22 2 -23 2 -5 6 12 2 24 12 27 22 3 14 -1 19 -20 19 -19 0
-25 -7 -30 -30 -5 -26 -8 -28 -37 -23 -55 11 -66 16 -66 30 0 15 14 20 80 29
25 4 63 17 85 30 22 13 41 25 42 25 1 1 -3 -12 -8 -29z m-318 -101 c13 0 18
-3 11 -6 -23 -9 -62 7 -62 25 1 16 1 16 14 0 7 -10 24 -18 37 -19z"/>
<path d="M1421 4134 c0 -11 3 -14 6 -6 3 7 2 16 -1 19 -3 4 -6 -2 -5 -13z"/>
<path d="M3165 4130 c-14 -22 52 -70 95 -70 27 0 26 25 -5 55 -25 26 -78 34
-90 15z"/>
<path d="M2886 4084 c-30 -30 -33 -55 -10 -78 36 -36 104 2 104 59 0 52 -50
62 -94 19z"/>
<path d="M1330 3934 c0 -8 5 -12 10 -9 6 3 10 10 10 16 0 5 -4 9 -10 9 -5 0
-10 -7 -10 -16z"/>
<path d="M2320 4003 c0 -5 7 -28 16 -53 21 -59 11 -157 -22 -222 -13 -26 -49
-75 -79 -109 -30 -34 -55 -67 -55 -74 0 -7 -13 -29 -30 -50 -16 -21 -30 -41
-30 -44 0 -3 10 7 23 23 l23 28 12 -26 c6 -14 17 -26 23 -26 8 0 6 7 -4 18
-19 21 -22 49 -7 72 7 11 10 6 10 -21 0 -62 46 -79 97 -35 26 22 27 27 17 55
l-12 30 24 -16 c49 -32 18 -109 -46 -115 l-35 -3 29 -6 c43 -10 100 48 154
153 42 85 50 112 33 122 -5 3 0 24 11 46 20 40 18 100 -4 100 -6 0 -8 11 -4
26 9 36 -10 90 -41 114 -25 19 -103 29 -103 13z m130 -106 c0 -16 -9 -40 -20
-54 l-20 -25 4 62 c3 45 0 70 -11 89 -11 20 -7 18 16 -9 19 -21 31 -45 31 -63z
m-67 16 c-7 -3 -14 -14 -14 -26 -1 -18 -2 -19 -6 -4 -5 19 16 52 26 41 3 -4 0
-9 -6 -11z m-3 -96 c0 -5 -4 -5 -10 -2 -5 3 -10 14 -10 23 0 15 2 15 10 2 5
-8 10 -19 10 -23z m68 -48 c-7 -5 -9 -9 -5 -9 4 0 3 -10 -4 -21 -9 -18 -13
-19 -21 -8 -8 11 -8 10 -4 -4 3 -10 6 -23 6 -28 0 -5 6 -8 13 -6 15 3 17 -55
1 -60 -7 -2 -10 6 -6 23 3 19 1 25 -7 20 -6 -4 -9 -12 -6 -17 4 -5 0 -9 -9 -9
-8 0 -17 -6 -20 -12 -3 -7 -3 -2 0 11 5 18 3 22 -7 15 -11 -6 -11 -4 1 10 21
27 21 50 0 64 -16 10 -22 8 -36 -11 -14 -19 -15 -19 -9 -2 5 11 10 35 13 53 4
30 22 46 22 20 0 -8 3 -9 8 -3 10 14 35 12 48 -4 9 -11 12 -10 19 10 l8 24 4
-24 c3 -13 -1 -27 -9 -32z m-122 -105 c-11 -7 -17 -17 -13 -21 4 -3 17 2 29
13 l23 18 -21 -23 c-23 -25 -44 -21 -44 8 0 25 21 44 35 30 7 -7 4 -15 -9 -25z
m80 -82 c1 -7 0 -8 -3 -2 -2 5 -9 7 -14 4 -6 -4 -6 -10 0 -18 7 -8 5 -12 -9
-13 -23 -2 -44 22 -37 41 7 17 59 7 63 -12z m-176 -2 c-14 -11 -19 -20 -12
-20 8 0 10 -5 6 -12 -4 -7 1 -6 12 3 26 21 53 13 61 -18 4 -20 1 -31 -17 -45
-31 -25 -42 -19 -61 35 -17 46 -17 48 4 62 31 22 36 18 7 -5z"/>
<path d="M2398 3783 c10 -4 10 -8 0 -21 -11 -15 -11 -15 3 -5 9 7 19 10 23 6
4 -4 4 0 0 10 -3 9 -14 17 -23 16 -11 0 -12 -2 -3 -6z"/>
<path d="M2315 3680 c-3 -5 -1 -10 4 -10 6 0 11 5 11 10 0 6 -2 10 -4 10 -3 0
-8 -4 -11 -10z"/>
<path d="M2248 3413 c7 -3 16 -2 19 1 4 3 -2 6 -13 5 -11 0 -14 -3 -6 -6z"/>
<path d="M3118 4023 c-32 -5 -35 -15 -13 -33 12 -10 19 -10 27 -2 9 9 23 48
15 41 -1 -1 -14 -4 -29 -6z"/>
<path d="M2960 3867 c-17 -9 -25 -21 -25 -40 0 -37 18 -36 29 2 9 33 32 40 55
19 10 -11 12 -9 9 7 -4 24 -34 30 -68 12z"/>
<path d="M3015 3730 c-9 -15 4 -30 26 -30 22 0 24 11 7 28 -15 15 -25 15 -33
2z"/>
<path d="M3589 3464 c-10 -12 -10 -20 -1 -34 9 -14 8 -20 -1 -23 -10 -4 25 -3
56 2 12 2 8 46 -5 59 -16 16 -33 15 -49 -4z"/>
<path d="M3259 3113 c-13 -15 -12 -15 9 -4 23 12 28 21 13 21 -5 0 -15 -7 -22
-17z"/>
<path d="M3175 3100 l-30 -8 27 -1 c15 0 30 4 33 9 3 6 5 9 3 9 -2 -1 -16 -5
-33 -9z"/>
<path d="M1615 2984 c0 -52 1 -54 12 -27 16 36 16 46 1 66 -11 15 -13 8 -13
-39z"/>
<path d="M4175 3087 c-8 -19 -2 -31 13 -26 5 2 6 13 2 24 -7 19 -8 19 -15 2z"/>
<path d="M2110 3096 c-92 -15 -151 -34 -166 -54 -6 -8 -16 -12 -22 -8 -7 4
-12 2 -12 -4 0 -6 -4 -8 -10 -5 -5 3 -10 1 -10 -5 0 -6 -4 -8 -10 -5 -5 3 -10
1 -10 -5 0 -7 -6 -10 -14 -7 -22 9 -83 -41 -172 -137 -97 -107 -117 -155 -111
-266 6 -115 56 -193 141 -220 52 -17 159 -8 219 19 52 23 157 122 222 210 74
101 147 171 205 198 84 39 129 53 167 53 41 0 123 -19 141 -33 7 -5 15 -7 18
-5 7 7 -77 126 -113 160 -55 53 -265 129 -349 127 -21 -1 -73 -7 -114 -13z
m265 -116 c34 -13 31 -24 -11 -51 -20 -12 -57 -40 -83 -61 -25 -22 -66 -56
-90 -76 -24 -20 -60 -62 -79 -92 -20 -30 -70 -89 -111 -131 -85 -86 -150 -117
-218 -104 -43 8 -108 68 -119 109 -5 21 -9 25 -16 14 -7 -9 -8 -8 -5 7 3 11 8
38 12 60 18 107 130 220 289 290 103 46 350 66 431 35z m-555 -4 c0 -2 -12
-11 -27 -20 l-28 -17 24 20 c23 21 31 25 31 17z"/>
<path d="M2220 2968 c3 -3 21 -13 40 -23 27 -13 32 -14 20 -2 -8 8 -26 18 -40
22 -14 4 -23 5 -20 3z"/>
<path d="M2000 2901 c-45 -9 -129 -55 -178 -96 -39 -34 -62 -93 -62 -159 0
-19 -5 -36 -11 -38 -17 -6 64 -58 90 -58 34 0 81 28 136 80 153 147 228 233
223 258 -3 13 -19 17 -83 18 -44 1 -96 -1 -115 -5z m8 -38 c0 -5 2 -16 6 -25
9 -20 -11 -61 -26 -56 -6 2 -12 11 -14 19 -1 7 -3 19 -5 24 -2 6 3 18 11 27
16 18 31 23 28 11z m-128 -61 c0 -23 -33 -70 -55 -80 -23 -11 -25 -10 -25 12
0 15 12 35 31 50 31 26 49 33 49 18z m214 -47 c-15 -20 -36 -41 -48 -47 -11
-6 -1 10 24 35 25 26 46 47 48 47 2 0 -9 -16 -24 -35z m-174 -75 c13 -25 5
-56 -16 -64 -22 -8 -31 -1 -37 31 -9 48 32 73 53 33z"/>
<path d="M1848 2533 c7 -3 16 -2 19 1 4 3 -2 6 -13 5 -11 0 -14 -3 -6 -6z"/>
<path d="M2613 3083 c-7 -2 -13 -13 -13 -24 0 -14 7 -19 30 -19 31 0 39 17 18
38 -13 13 -16 13 -35 5z"/>
<path d="M4325 3086 c-5 -11 -3 -21 5 -26 7 -4 10 -12 6 -18 -3 -5 8 -12 26
-14 l32 -5 -23 18 c-13 11 -19 23 -15 30 4 7 3 9 -4 5 -6 -3 -12 2 -15 11 -4
17 -4 17 -12 -1z"/>
<path d="M990 2966 c0 -3 9 -10 20 -16 11 -6 20 -8 20 -6 0 3 -9 10 -20 16
-11 6 -20 8 -20 6z"/>
<path d="M1020 2926 c0 -2 7 -9 15 -16 13 -11 14 -10 9 4 -5 14 -24 23 -24 12z"/>
<path d="M4440 2855 c0 -8 9 -15 20 -15 11 0 20 7 20 15 0 8 -9 15 -20 15 -11
0 -20 -7 -20 -15z"/>
<path d="M4290 2901 c0 -6 4 -13 10 -16 6 -3 7 1 4 9 -7 18 -14 21 -14 7z"/>
<path d="M1266 2785 c8 -50 14 -58 14 -19 0 16 -5 36 -11 44 -7 11 -8 4 -3
-25z"/>
<path d="M1296 2760 c7 -59 18 -89 27 -73 3 5 -3 36 -13 69 l-19 59 5 -55z"/>
<path d="M4102 2647 c-12 -5 -39 -35 -59 -66 -20 -31 -53 -82 -75 -115 -21
-32 -38 -61 -39 -65 -5 -38 -5 -51 1 -51 4 0 44 37 90 82 75 74 130 156 130
194 0 22 -24 32 -48 21z"/>
<path d="M4425 2657 c-9 -22 8 -42 29 -34 20 8 21 27 2 27 -8 0 -16 6 -19 13
-3 8 -7 6 -12 -6z"/>
<path d="M1525 2220 c-5 -8 -21 -10 -44 -6 -26 5 -32 4 -21 -3 8 -6 24 -11 35
-11 24 0 52 16 43 25 -3 4 -9 1 -13 -5z"/>
<path d="M745 2171 c-6 -11 13 -26 22 -17 4 3 1 6 -6 6 -7 0 -9 5 -6 10 3 6 4
10 1 10 -3 0 -7 -4 -11 -9z"/>
<path d="M2889 1941 c13 -12 28 -21 35 -21 12 0 -5 14 -39 31 -16 8 -15 6 4
-10z"/>
<path d="M3248 2059 c-38 -22 -8 -89 39 -89 11 0 29 11 42 23 18 20 20 28 12
50 -9 22 -17 27 -43 27 -18 0 -41 -5 -50 -11z"/>
<path d="M3345 1740 c9 -16 18 -30 21 -30 2 0 -2 14 -11 30 -9 17 -18 30 -21
30 -2 0 2 -13 11 -30z"/>
<path d="M3385 1680 c10 -11 20 -20 23 -20 3 0 -3 9 -13 20 -10 11 -20 20 -23
20 -3 0 3 -9 13 -20z"/>
<path d="M3397 1639 c12 -12 24 -21 27 -18 2 2 -8 13 -22 23 l-27 19 22 -24z"/>
<path d="M2066 1574 c-3 -8 -12 -12 -18 -9 -7 4 -4 -1 6 -9 21 -17 34 -20 76
-16 47 3 41 16 -7 16 -40 -1 -48 2 -45 17 4 21 -4 22 -12 1z"/>
<path d="M2399 1543 c-13 -16 -12 -17 4 -4 9 7 17 15 17 17 0 8 -8 3 -21 -13z"/>
<path d="M1022 1512 c-59 -59 -34 -168 71 -307 51 -68 105 -115 224 -198 106
-74 211 -121 348 -157 60 -15 117 -31 126 -35 17 -6 5 18 -90 197 -47 88 -160
250 -171 243 -5 -3 -12 0 -16 6 -4 8 -3 9 4 5 7 -4 12 -3 12 1 0 25 -209 201
-277 234 -29 14 -72 23 -127 26 -75 5 -85 4 -104 -15z m148 -2 c10 -7 -1 -9
-36 -7 -31 2 -58 -1 -69 -9 -10 -7 -22 -11 -26 -8 -9 5 -12 -8 -10 -41 2 -17
0 -17 -8 -5 -9 13 -11 12 -12 -5 -1 -16 -2 -17 -6 -3 -7 26 24 76 49 80 47 8
104 7 118 -2z m130 -56 c0 -2 -9 0 -20 6 -11 6 -20 13 -20 16 0 2 9 0 20 -6
11 -6 20 -13 20 -16z m-176 -39 c-23 -17 -34 -19 -34 -4 0 5 4 7 10 4 5 -3 15
3 22 15 7 11 15 15 17 9 1 -5 -5 -17 -15 -24z m146 9 c0 -2 -9 0 -20 6 -11 6
-20 13 -20 16 0 2 9 0 20 -6 11 -6 20 -13 20 -16z m76 -6 c3 -4 -1 -5 -10 -4
-8 1 -18 5 -22 8 -3 4 1 5 10 4 8 -1 18 -5 22 -8z m-71 -36 c53 -26 240 -207
262 -252 21 -44 73 -168 73 -174 0 -17 -60 -2 -119 29 -85 45 -268 183 -302
227 -15 19 -39 58 -54 87 -23 44 -26 56 -16 77 22 49 67 50 156 6z m-251 -4
c-3 -4 0 -8 6 -8 6 0 8 -5 4 -11 -9 -14 -24 8 -24 36 0 16 2 17 9 5 6 -8 7
-18 5 -22z m357 15 c13 -16 12 -17 -3 -5 -11 9 -18 10 -23 2 -3 -5 0 -10 7
-10 8 0 5 -5 -6 -11 -14 -9 -22 -7 -35 6 -9 10 -11 15 -5 12 6 -4 20 0 30 8
10 8 20 15 20 15 1 0 8 -8 15 -17z m-306 -3 c3 -5 1 -10 -4 -10 -6 0 -11 5
-11 10 0 6 2 10 4 10 3 0 8 -4 11 -10z m14 -31 c-19 -12 -24 -2 -8 17 9 11 14
13 17 4 3 -7 -2 -16 -9 -21z m370 -43 c-3 -3 -11 5 -18 17 -13 21 -12 21 5 5
10 -10 16 -20 13 -22z m3 -61 c6 -11 -6 -3 -26 17 -20 20 -36 43 -36 50 1 14
43 -33 62 -67z m-381 38 c13 -16 12 -17 -3 -4 -10 7 -18 15 -18 17 0 8 8 3 21
-13z m54 -22 c3 -5 2 -12 -3 -15 -5 -3 -9 1 -9 9 0 17 3 19 12 6z m104 -131
c15 -14 21 -21 14 -17 -7 5 -17 6 -23 2 -5 -3 -14 5 -20 19 -11 31 -19 34 -17
6 1 -11 4 -20 8 -20 4 0 10 -8 13 -17 6 -14 4 -14 -16 2 -13 11 -24 21 -26 22
-2 0 1 10 6 20 8 14 5 24 -13 45 -13 15 -26 24 -31 20 -4 -4 -4 -1 1 7 6 11
16 5 43 -25 19 -21 47 -50 61 -64z m320 64 c24 -39 28 -58 8 -29 -15 20 -34 5
-21 -17 8 -15 0 -6 -36 37 -14 17 -19 25 -11 18 7 -6 20 -9 29 -6 10 4 13 2 8
-5 -4 -7 -2 -12 3 -12 16 0 13 20 -4 26 -8 4 -12 10 -9 15 8 14 10 12 33 -27z
m-434 5 c11 -17 -1 -21 -15 -4 -8 9 -8 15 -2 15 6 0 14 -5 17 -11z m520 -133
c18 -31 18 -31 -1 -11 -23 24 -54 71 -54 82 1 10 33 -31 55 -71z m-68 44 c3
-11 10 -17 17 -13 6 4 5 -1 -3 -10 -14 -18 -22 -22 -19 -9 1 4 -3 17 -10 30
-9 16 -9 22 -1 22 6 0 13 -9 16 -20z m55 -114 c3 2 8 -2 11 -10 4 -9 1 -18 -5
-22 -7 -4 -6 -10 3 -16 12 -8 11 -9 -1 -6 -8 3 -20 20 -28 38 -12 29 -12 32 1
22 7 -7 16 -9 19 -6z m-122 -50 c0 -3 -13 1 -30 7 -16 6 -30 15 -30 19 0 5 14
2 30 -7 17 -9 30 -17 30 -19z m194 18 c3 -8 2 -12 -4 -9 -6 3 -10 10 -10 16 0
14 7 11 14 -7z m-259 -32 c-3 -3 -11 0 -18 7 -9 10 -8 11 6 5 10 -3 15 -9 12
-12z m49 -11 c4 -5 -3 -7 -14 -4 -23 6 -26 13 -6 13 8 0 17 -4 20 -9z m171 -9
c-3 -3 -11 0 -18 7 -9 10 -8 11 6 5 10 -3 15 -9 12 -12z m74 -26 c1 -5 -7 -2
-16 5 -11 10 -14 10 -9 2 4 -7 3 -13 -3 -13 -17 0 -18 25 -2 37 13 9 17 8 23
-5 4 -9 7 -21 7 -26z m-145 7 c11 4 15 3 10 -4 -4 -7 0 -9 13 -5 12 4 25 1 33
-9 8 -10 9 -15 1 -15 -6 0 -11 5 -11 11 0 5 -5 7 -10 4 -17 -11 -80 15 -80 33
0 13 2 13 14 -3 8 -11 19 -16 30 -12z"/>
<path d="M1207 1343 c-13 -12 -7 -44 17 -91 64 -125 248 -222 222 -117 -19 74
-209 239 -239 208z m68 -39 c68 -40 141 -127 151 -179 4 -22 2 -26 -11 -21 -9
3 -20 6 -25 6 -20 0 -114 86 -141 128 -26 41 -39 92 -23 92 3 0 25 -12 49 -26z"/>
<path d="M1324 1228 c1 -7 10 -14 19 -16 12 -3 15 1 11 13 -5 12 -9 13 -14 5
-6 -9 -9 -9 -13 -1 -3 7 -5 7 -3 -1z"/>
<path d="M1351 1153 c8 -13 20 -23 28 -23 8 0 12 1 10 3 -2 1 -15 11 -28 22
l-24 20 14 -22z"/>
<path d="M860 1445 c0 -8 4 -15 9 -15 5 0 11 7 15 15 3 9 0 15 -9 15 -8 0 -15
-7 -15 -15z"/>
<path d="M3180 746 c0 -3 14 -12 30 -21 17 -9 30 -13 30 -11 0 3 -13 12 -30
21 -16 9 -30 13 -30 11z"/>
<path d="M3464 1339 c-8 -14 11 -33 25 -25 6 4 11 14 11 22 0 16 -26 19 -36 3z"/>
<path d="M3640 1154 c0 -8 5 -12 10 -9 6 4 8 11 5 16 -9 14 -15 11 -15 -7z"/>
<path d="M1076 1101 c-3 -5 2 -15 12 -22 15 -12 16 -12 5 2 -7 9 -10 19 -6 22
3 4 4 7 0 7 -3 0 -8 -4 -11 -9z"/>
<path d="M3656 991 c-4 -7 -5 -15 -2 -18 9 -9 19 4 14 18 -4 11 -6 11 -12 0z"/>
<path d="M3608 773 c7 -3 16 -2 19 1 4 3 -2 6 -13 5 -11 0 -14 -3 -6 -6z"/>
</g>
</svg>
